<mxfile host="app.diagrams.net" agent="Mozilla/5.0 (Windows NT 10.0; Win64; x64) AppleWebKit/537.36 (KHTML, like Gecko) Chrome/131.0.0.0 Safari/537.36" version="24.8.2">
  <diagram name="Seite-1" id="oJ7a51_tnW65NZX46Cpn">
    <mxGraphModel dx="1301" dy="614" grid="1" gridSize="10" guides="1" tooltips="1" connect="1" arrows="1" fold="1" page="1" pageScale="1" pageWidth="827" pageHeight="1169" math="0" shadow="0">
      <root>
        <mxCell id="0" />
        <mxCell id="1" parent="0" />
        <mxCell id="Vn1WinI93Q5BzFA_56M7-10" value="" style="rounded=0;whiteSpace=wrap;html=1;" vertex="1" parent="1">
          <mxGeometry x="427.5" y="250" width="145" height="160" as="geometry" />
        </mxCell>
        <mxCell id="Vn1WinI93Q5BzFA_56M7-12" style="edgeStyle=orthogonalEdgeStyle;rounded=0;orthogonalLoop=1;jettySize=auto;html=1;exitX=0.5;exitY=0.5;exitDx=0;exitDy=0;exitPerimeter=0;entryX=0;entryY=0.5;entryDx=0;entryDy=0;" edge="1" parent="1" source="Vn1WinI93Q5BzFA_56M7-2" target="Vn1WinI93Q5BzFA_56M7-9">
          <mxGeometry relative="1" as="geometry" />
        </mxCell>
        <mxCell id="Vn1WinI93Q5BzFA_56M7-13" style="edgeStyle=orthogonalEdgeStyle;rounded=0;orthogonalLoop=1;jettySize=auto;html=1;entryX=0;entryY=0.5;entryDx=0;entryDy=0;" edge="1" parent="1" source="Vn1WinI93Q5BzFA_56M7-2" target="Vn1WinI93Q5BzFA_56M7-7">
          <mxGeometry relative="1" as="geometry" />
        </mxCell>
        <mxCell id="Vn1WinI93Q5BzFA_56M7-14" style="edgeStyle=orthogonalEdgeStyle;rounded=0;orthogonalLoop=1;jettySize=auto;html=1;entryX=0;entryY=0.5;entryDx=0;entryDy=0;" edge="1" parent="1" source="Vn1WinI93Q5BzFA_56M7-2" target="Vn1WinI93Q5BzFA_56M7-8">
          <mxGeometry relative="1" as="geometry">
            <Array as="points">
              <mxPoint x="440" y="325" />
            </Array>
          </mxGeometry>
        </mxCell>
        <mxCell id="Vn1WinI93Q5BzFA_56M7-2" value="Spieler" style="shape=umlActor;verticalLabelPosition=bottom;verticalAlign=top;html=1;outlineConnect=0;" vertex="1" parent="1">
          <mxGeometry x="110" y="280" width="45" height="90" as="geometry" />
        </mxCell>
        <mxCell id="Vn1WinI93Q5BzFA_56M7-7" value="Charakter bewegen" style="ellipse;whiteSpace=wrap;html=1;align=center;" vertex="1" parent="1">
          <mxGeometry x="440" y="260" width="100" height="40" as="geometry" />
        </mxCell>
        <mxCell id="Vn1WinI93Q5BzFA_56M7-8" value="Spiel beenden" style="ellipse;whiteSpace=wrap;html=1;align=center;" vertex="1" parent="1">
          <mxGeometry x="450" y="305" width="100" height="40" as="geometry" />
        </mxCell>
        <mxCell id="Vn1WinI93Q5BzFA_56M7-9" value="Einstellungen im MenÃ¼" style="ellipse;whiteSpace=wrap;html=1;align=center;" vertex="1" parent="1">
          <mxGeometry x="440" y="350" width="120" height="50" as="geometry" />
        </mxCell>
      </root>
    </mxGraphModel>
  </diagram>
</mxfile>
